<svg width="200" height="200" viewBox="0 0 200 200" fill="none" xmlns="http://www.w3.org/2000/svg">
<path d="M200 100C200 155.228 155.228 200 100 200C44.7715 200 0 155.228 0 100C0 44.7715 44.7715 0 100 0C155.228 0 200 44.7715 200 100Z" fill="#1E1E1E"/>
<path d="M73.1818 77.1818C72.6364 72.5758 70.4242 69 66.5455 66.4545C62.6667 63.9091 57.9091 62.6364 52.2727 62.6364C48.1515 62.6364 44.5455 63.303 41.4545 64.6364C38.3939 65.9697 36 67.803 34.2727 70.1364C32.5758 72.4697 31.7273 75.1212 31.7273 78.0909C31.7273 80.5758 32.3182 82.7121 33.5 84.5C34.7121 86.2576 36.2576 87.7273 38.1364 88.9091C40.0152 90.0606 41.9848 91.0151 44.0455 91.7727C46.1061 92.5 48 93.0909 49.7273 93.5455L59.1818 96.0909C61.6061 96.7273 64.303 97.6061 67.2727 98.7273C70.2727 99.8485 73.1364 101.379 75.8636 103.318C78.6212 105.227 80.8939 107.682 82.6818 110.682C84.4697 113.682 85.3636 117.364 85.3636 121.727C85.3636 126.758 84.0455 131.303 81.4091 135.364C78.803 139.424 74.9848 142.652 69.9545 145.045C64.9545 147.439 58.8788 148.636 51.7273 148.636C45.0606 148.636 39.2879 147.561 34.4091 145.409C29.5606 143.258 25.7424 140.258 22.9545 136.409C20.197 132.561 18.6364 128.091 18.2727 123H29.9091C30.2121 126.515 31.3939 129.424 33.4545 131.727C35.5455 134 38.1818 135.697 41.3636 136.818C44.5758 137.909 48.0303 138.455 51.7273 138.455C56.0303 138.455 59.8939 137.758 63.3182 136.364C66.7424 134.939 69.4545 132.97 71.4545 130.455C73.4545 127.909 74.4545 124.939 74.4545 121.545C74.4545 118.455 73.5909 115.939 71.8636 114C70.1364 112.061 67.8636 110.485 65.0455 109.273C62.2273 108.061 59.1818 107 55.9091 106.091L44.4545 102.818C37.1818 100.727 31.4242 97.7424 27.1818 93.8636C22.9394 89.9848 20.8182 84.9091 20.8182 78.6364C20.8182 73.4242 22.2273 68.8788 25.0455 65C27.8939 61.0909 31.7121 58.0606 36.5 55.9091C41.3182 53.7273 46.697 52.6364 52.6364 52.6364C58.6364 52.6364 63.9697 53.7121 68.6364 55.8636C73.303 57.9848 77 60.8939 79.7273 64.5909C82.4849 68.2879 83.9394 72.4848 84.0909 77.1818H73.1818Z" fill="#D1E6EB"/>
<path d="M104.273 147V53.9091H115.545V95.3636H165.182V53.9091H176.455V147H165.182V105.364H115.545V147H104.273Z" fill="#D1E6EB"/>
</svg>
